<svg width="70" height="70" viewBox="0 0 70 70" fill="none" xmlns="http://www.w3.org/2000/svg">
<path d="M23 38C24.6569 38 26 36.6569 26 35C26 33.3431 24.6569 32 23 32C21.3431 32 20 33.3431 20 35C20 36.6569 21.3431 38 23 38Z" fill="#0084FF"/>
<path d="M38 35C38 36.6569 36.6569 38 35 38C33.3431 38 32 36.6569 32 35C32 33.3431 33.3431 32 35 32C36.6569 32 38 33.3431 38 35Z" fill="#0084FF"/>
<path d="M47 38C48.6569 38 50 36.6569 50 35C50 33.3431 48.6569 32 47 32C45.3431 32 44 33.3431 44 35C44 36.6569 45.3431 38 47 38Z" fill="#0084FF"/>
<path fill-rule="evenodd" clip-rule="evenodd" d="M35 0C15.67 0 0 15.67 0 35C0 54.33 15.67 70 35 70C40.7755 70 46.2322 68.5988 51.0406 66.1154L63.268 69.3917C66.9858 70.3879 70.3879 66.9858 69.3917 63.268L66.1154 51.0406C68.5988 46.2322 70 40.7755 70 35C70 15.67 54.33 0 35 0ZM6 35C6 18.9837 18.9837 6 35 6C51.0163 6 64 18.9837 64 35C64 39.8995 62.7874 44.5069 60.6485 48.5471C60.0686 49.6425 59.8809 50.9553 60.2225 52.2304L63.1479 63.1479L52.2304 60.2225C50.9553 59.8809 49.6425 60.0686 48.5471 60.6485C44.5069 62.7874 39.8995 64 35 64C18.9837 64 6 51.0163 6 35Z" fill="#0084FF"/>
</svg>
