<svg width="70" height="70" viewBox="0 0 70 70" fill="none" xmlns="http://www.w3.org/2000/svg">
<path d="M49.9508 63.2999L48.5471 60.6485L49.9508 63.2999ZM51.454 63.1203L52.2304 60.2225L51.454 63.1203ZM64.0444 66.4939L64.8209 63.5961L64.0444 66.4939ZM66.4939 64.0444L69.3917 63.268L66.4939 64.0444ZM63.2999 49.9508L65.9513 51.3544L63.2999 49.9508ZM63.1203 51.454L66.0181 50.6775L63.1203 51.454ZM64 35C64 39.8995 62.7874 44.5069 60.6485 48.5471L65.9513 51.3544C68.537 46.4702 70 40.9015 70 35H64ZM35 6C51.0163 6 64 18.9837 64 35H70C70 15.67 54.33 0 35 0V6ZM6 35C6 18.9837 18.9837 6 35 6V0C15.67 0 0 15.67 0 35H6ZM35 64C18.9837 64 6 51.0163 6 35H0C0 54.33 15.67 70 35 70V64ZM48.5471 60.6485C44.5069 62.7874 39.8995 64 35 64V70C40.9015 70 46.4702 68.537 51.3544 65.9513L48.5471 60.6485ZM64.8209 63.5961L52.2304 60.2225L50.6775 66.0181L63.268 69.3917L64.8209 63.5961ZM60.2225 52.2304L63.5961 64.8209L69.3917 63.268L66.0181 50.6775L60.2225 52.2304ZM51.3544 65.9513C51.1829 66.0421 50.9428 66.0892 50.6775 66.0181L52.2304 60.2225C50.9553 59.8809 49.6425 60.0686 48.5471 60.6485L51.3544 65.9513ZM63.268 69.3917C66.9858 70.3879 70.3879 66.9858 69.3917 63.268L63.5961 64.8209C63.3969 64.0773 64.0773 63.3969 64.8209 63.5961L63.268 69.3917ZM60.6485 48.5471C60.0686 49.6425 59.8809 50.9553 60.2225 52.2304L66.0181 50.6775C66.0892 50.9428 66.0421 51.1829 65.9513 51.3544L60.6485 48.5471Z" fill="#DDE6EE"/>
<circle cx="23" cy="35" r="3" fill="#DDE6EE"/>
<circle cx="35" cy="35" r="3" fill="#DDE6EE"/>
<circle cx="47" cy="35" r="3" fill="#DDE6EE"/>
</svg>
