<svg xmlns="http://www.w3.org/2000/svg" width="70" height="70" viewBox="0 0 70 70" fill="none">
<path d="M21.8285 48.6985C20.2664 47.1364 20.2664 44.6037 21.8285 43.0416L29.6066 35.2635L21.8285 27.4853C20.2664 25.9232 20.2664 23.3905 21.8285 21.8284C23.3906 20.2663 25.9232 20.2663 27.4853 21.8284L35.2635 29.6066L43.0417 21.8284C44.6038 20.2663 47.1364 20.2663 48.6985 21.8284C50.2606 23.3905 50.2606 25.9232 48.6985 27.4853L40.9203 35.2635L48.6985 43.0416C50.2606 44.6037 50.2606 47.1364 48.6985 48.6985C47.1364 50.2606 44.6038 50.2606 43.0417 48.6985L35.2635 40.9203L27.4853 48.6985C25.9232 50.2606 23.3906 50.2606 21.8285 48.6985Z" fill="#3949ab"/>
<path fill-rule="evenodd" clip-rule="evenodd" d="M35 70C54.33 70 70 54.33 70 35C70 15.67 54.33 0 35 0C15.67 0 0 15.67 0 35C0 54.33 15.67 70 35 70ZM35 64C51.0163 64 64 51.0163 64 35C64 18.9837 51.0163 6 35 6C18.9837 6 6 18.9837 6 35C6 51.0163 18.9837 64 35 64Z" fill="#3949ab"/>
</svg>