<svg xmlns="http://www.w3.org/2000/svg" width="70" height="70" viewBox="0 0 70 70" fill="none">
<path fill-rule="evenodd" clip-rule="evenodd" d="M40.5532 16L35.6265 4.7829C34.35 1.87667 31.4761 0 28.3019 0H8C3.58172 0 0 3.58172 0 8V55C0 63.2843 6.71573 70 15 70H55C63.2843 70 70 63.2843 70 55V26C70 20.4772 65.5229 16 60 16H40.5532ZM6 22V55C6 59.9706 10.0294 64 15 64H55C59.9706 64 64 59.9706 64 55V26C64 23.7909 62.2091 22 60 22H6ZM34 16L30.133 7.19573C29.8139 6.46917 29.0954 6 28.3019 6H8C6.89543 6 6 6.89543 6 8V16H34Z" fill="#3949ab"/>
</svg>