<svg xmlns="http://www.w3.org/2000/svg" width="70" height="70" viewBox="0 0 70 70" fill="none">
<path fill-rule="evenodd" clip-rule="evenodd" d="M37 27C37 20.9249 41.9249 16 48 16C54.0751 16 59 20.9249 59 27C59 33.0751 54.0751 38 48 38C41.9249 38 37 33.0751 37 27ZM48 22C45.2386 22 43 24.2386 43 27C43 29.7614 45.2386 32 48 32C50.7614 32 53 29.7614 53 27C53 24.2386 50.7614 22 48 22Z" fill="#3949ab"/>
<path fill-rule="evenodd" clip-rule="evenodd" d="M15 0H55C63.2843 0 70 6.71573 70 15V55C70 63.2843 63.2843 70 55 70H15C6.71573 70 0 63.2843 0 55V15C0 6.71573 6.71573 0 15 0ZM15 6C10.0294 6 6 10.0294 6 15V36.3978C8.36227 34.8133 11.5266 33.5 15.5 33.5C23.0622 33.5 28.3151 38.5644 32.638 42.7321C32.8492 42.9357 33.0582 43.1372 33.2651 43.3358C38.0504 47.9297 42.1098 51.5 48 51.5C52.8526 51.5 57.1115 49.9062 60.2127 48.2514C61.7534 47.4292 62.9767 46.6088 63.8052 46.0018C63.8729 45.9522 63.9378 45.9042 64 45.8577V15C64 10.0294 59.9706 6 55 6H15ZM64 53.0127C63.6916 53.1892 63.3706 53.3671 63.0373 53.5449C59.3885 55.4919 54.1474 57.5 48 57.5C39.3902 57.5 33.6996 52.0703 29.1099 47.6642C24.1771 42.9287 20.5683 39.5 15.5 39.5C12.1722 39.5 9.72342 40.9044 8.04427 42.3819C7.20099 43.1239 6.57339 43.8681 6.16222 44.4191C6.10339 44.498 6.04932 44.5724 6 44.6418V55C6 59.9706 10.0294 64 15 64H55C59.9706 64 64 59.9706 64 55V53.0127Z" fill="#3949ab"/>
</svg>