<svg width="70" height="70" viewBox="0 0 70 70" fill="none" xmlns="http://www.w3.org/2000/svg">
<mask id="path-1-outside-1_1_111" maskUnits="userSpaceOnUse" x="0" y="0" width="70" height="70" fill="black">
<rect fill="white" width="70" height="70"/>
<path fill-rule="evenodd" clip-rule="evenodd" d="M34.0286 6C31.8194 6 30.0286 7.79086 30.0286 10V11.4468C30.0286 13.2924 28.7473 14.8612 27.0396 15.5613C26.9878 15.5825 26.9361 15.6039 26.8845 15.6256C25.1823 16.3394 23.167 16.1363 21.8617 14.831L20.8377 13.807C19.2756 12.2449 16.7429 12.2449 15.1808 13.807L13.807 15.1808C12.2449 16.7429 12.2449 19.2756 13.807 20.8377L14.8311 21.8617C16.1363 23.1669 16.3395 25.1823 15.6256 26.8845C15.6039 26.9361 15.5825 26.9878 15.5613 27.0396C14.8612 28.7473 13.2924 30.0286 11.4468 30.0286H10C7.79086 30.0286 6 31.8194 6 34.0286V35.9714C6 38.1806 7.79086 39.9714 10 39.9714H11.4468C13.2924 39.9714 14.8612 41.2527 15.5613 42.9604C15.5825 43.0122 15.6039 43.0639 15.6256 43.1155C16.3394 44.8177 16.1363 46.8331 14.8311 48.1383L13.807 49.1623C12.2449 50.7244 12.2449 53.2571 13.807 54.8192L15.1808 56.193C16.7429 57.7551 19.2756 57.7551 20.8377 56.193L21.8617 55.1689C23.1669 53.8637 25.1823 53.6606 26.8845 54.3744C26.9361 54.3961 26.9878 54.4175 27.0396 54.4387C28.7473 55.1388 30.0286 56.7076 30.0286 58.5532V60C30.0286 62.2091 31.8194 64 34.0286 64H35.9714C38.1806 64 39.9714 62.2091 39.9714 60V58.5532C39.9714 56.7076 41.2527 55.1388 42.9604 54.4387C43.0122 54.4175 43.0639 54.3961 43.1155 54.3744C44.8177 53.6605 46.8331 53.8637 48.1383 55.1689L49.1624 56.193C50.7245 57.7551 53.2571 57.7551 54.8192 56.193L56.193 54.8192C57.7551 53.2571 57.7551 50.7244 56.193 49.1623L55.169 48.1383C53.8637 46.833 53.6606 44.8177 54.3744 43.1155C54.3961 43.0639 54.4175 43.0122 54.4387 42.9604C55.1388 41.2527 56.7076 39.9714 58.5532 39.9714H60C62.2091 39.9714 64 38.1806 64 35.9714V34.0286C64 31.8194 62.2091 30.0286 60 30.0286H58.5532C56.7076 30.0286 55.1388 28.7473 54.4387 27.0396C54.4175 26.9878 54.3961 26.9361 54.3744 26.8845C53.6606 25.1823 53.8637 23.1669 55.1689 21.8617L56.193 20.8376C57.7551 19.2755 57.7551 16.7429 56.193 15.1808L54.8192 13.807C53.2571 12.2449 50.7244 12.2449 49.1623 13.807L48.1383 14.8311C46.8331 16.1363 44.8177 16.3394 43.1155 15.6256C43.0639 15.6039 43.0122 15.5825 42.9604 15.5613C41.2527 14.8612 39.9714 13.2924 39.9714 11.4468V10C39.9714 7.79086 38.1806 6 35.9714 6H34.0286ZM35 48C42.1797 48 48 42.1797 48 35C48 27.8203 42.1797 22 35 22C27.8203 22 22 27.8203 22 35C22 42.1797 27.8203 48 35 48Z"/>
</mask>
<path d="M27.0396 15.5613L24.7638 10.0096L24.7637 10.0097L27.0396 15.5613ZM26.8845 15.6256L29.205 21.1587L29.2051 21.1587L26.8845 15.6256ZM21.8617 14.831L17.6191 19.0737L17.6191 19.0737L21.8617 14.831ZM20.8377 13.807L25.0803 9.56435L25.0803 9.56435L20.8377 13.807ZM15.1808 13.807L10.9382 9.56435L10.9382 9.56435L15.1808 13.807ZM13.807 15.1808L18.0497 19.4234V19.4234L13.807 15.1808ZM13.807 20.8377L9.5644 25.0803L9.5644 25.0803L13.807 20.8377ZM14.8311 21.8617L10.5884 26.1043H10.5884L14.8311 21.8617ZM15.6256 26.8845L21.1587 29.205L21.1587 29.2049L15.6256 26.8845ZM15.5613 27.0396L10.0097 24.7637L10.0097 24.7637L15.5613 27.0396ZM15.5613 42.9604L10.0096 45.2363L10.0097 45.2363L15.5613 42.9604ZM15.6256 43.1155L10.0924 45.4359L10.0924 45.4359L15.6256 43.1155ZM14.8311 48.1383L19.0737 52.3809H19.0737L14.8311 48.1383ZM13.807 49.1623L9.56437 44.9197L13.807 49.1623ZM13.807 54.8192L18.0497 50.5765L18.0496 50.5765L13.807 54.8192ZM15.1808 56.193L10.9382 60.4356L10.9382 60.4356L15.1808 56.193ZM20.8377 56.193L16.595 51.9503H16.595L20.8377 56.193ZM21.8617 55.1689L26.1044 59.4116L26.1044 59.4116L21.8617 55.1689ZM26.8845 54.3744L29.205 48.8413L29.205 48.8413L26.8845 54.3744ZM27.0396 54.4387L24.7636 59.9903L24.7637 59.9903L27.0396 54.4387ZM42.9604 54.4387L40.6846 48.8871L40.6846 48.8871L42.9604 54.4387ZM43.1155 54.3744L40.7951 48.8413L40.7947 48.8414L43.1155 54.3744ZM54.8192 56.193L50.5766 51.9503L50.5766 51.9504L54.8192 56.193ZM56.193 54.8192L60.4357 59.0618L60.4357 59.0618L56.193 54.8192ZM54.3744 43.1155L59.9076 45.4359L59.9077 45.4356L54.3744 43.1155ZM54.4387 42.9604L48.8871 40.6845L48.887 40.6848L54.4387 42.9604ZM54.4387 27.0396L59.9903 24.7637L59.9903 24.7636L54.4387 27.0396ZM54.3744 26.8845L48.8413 29.205L48.8413 29.205L54.3744 26.8845ZM55.1689 21.8617L59.4116 26.1044L59.4116 26.1043L55.1689 21.8617ZM56.193 20.8376L51.9504 16.595L51.9504 16.595L56.193 20.8376ZM56.193 15.1808L60.4356 10.9382L60.4356 10.9382L56.193 15.1808ZM54.8192 13.807L59.0618 9.56434V9.56434L54.8192 13.807ZM49.1623 13.807L53.405 18.0496V18.0496L49.1623 13.807ZM48.1383 14.8311L52.3809 19.0737V19.0737L48.1383 14.8311ZM43.1155 15.6256L45.4359 10.0924L45.4359 10.0924L43.1155 15.6256ZM42.9604 15.5613L45.2364 10.0097L45.2363 10.0096L42.9604 15.5613ZM36.0286 10C36.0286 11.1046 35.1331 12 34.0286 12V0C28.5057 0 24.0286 4.47716 24.0286 10H36.0286ZM36.0286 11.4468V10H24.0286V11.4468H36.0286ZM29.3155 21.1129C32.7804 19.6925 36.0286 16.2218 36.0286 11.4468H24.0286C24.0286 10.9388 24.2129 10.5487 24.3776 10.3294C24.5273 10.1303 24.6707 10.0478 24.7638 10.0096L29.3155 21.1129ZM29.2051 21.1587C29.2417 21.1433 29.2786 21.128 29.3155 21.1129L24.7637 10.0097C24.6971 10.037 24.6305 10.0646 24.564 10.0925L29.2051 21.1587ZM17.6191 19.0737C20.9959 22.4505 25.7485 22.6083 29.205 21.1587L24.5641 10.0924C24.658 10.0531 24.8188 10.0098 25.0664 10.0448C25.3388 10.0835 25.7453 10.2293 26.1044 10.5884L17.6191 19.0737ZM16.5951 18.0496L17.6191 19.0737L26.1044 10.5884L25.0803 9.56435L16.5951 18.0496ZM19.4235 18.0496C18.6424 18.8307 17.3761 18.8307 16.5951 18.0496L25.0803 9.56435C21.1751 5.65911 14.8434 5.65911 10.9382 9.56435L19.4235 18.0496ZM18.0497 19.4234L19.4235 18.0496L10.9382 9.56435L9.56439 10.9382L18.0497 19.4234ZM18.0497 16.595C18.8307 17.3761 18.8307 18.6424 18.0497 19.4234L9.56439 10.9382C5.65915 14.8434 5.65916 21.1751 9.5644 25.0803L18.0497 16.595ZM19.0737 17.619L18.0497 16.595L9.5644 25.0803L10.5884 26.1043L19.0737 17.619ZM21.1587 29.2049C22.6083 25.7484 22.4505 20.9958 19.0737 17.619L10.5884 26.1043C10.2293 25.7452 10.0835 25.3388 10.0449 25.0663C10.0098 24.8188 10.0531 24.6579 10.0925 24.564L21.1587 29.2049ZM21.1129 29.3155C21.128 29.2785 21.1433 29.2417 21.1587 29.205L10.0925 24.564C10.0646 24.6305 10.037 24.697 10.0097 24.7637L21.1129 29.3155ZM11.4468 36.0286C16.2218 36.0286 19.6925 32.7804 21.1129 29.3155L10.0097 24.7637C10.0478 24.6707 10.1303 24.5273 10.3294 24.3776C10.5487 24.2129 10.9388 24.0286 11.4468 24.0286V36.0286ZM10 36.0286H11.4468V24.0286H10V36.0286ZM12 34.0286C12 35.1331 11.1046 36.0286 10 36.0286V24.0286C4.47715 24.0286 0 28.5057 0 34.0286H12ZM12 35.9714V34.0286H0V35.9714H12ZM10 33.9714C11.1046 33.9714 12 34.8669 12 35.9714H0C0 41.4943 4.47716 45.9714 10 45.9714V33.9714ZM11.4468 33.9714H10V45.9714H11.4468V33.9714ZM21.1129 40.6845C19.6925 37.2196 16.2218 33.9714 11.4468 33.9714V45.9714C10.9388 45.9714 10.5487 45.7871 10.3294 45.6224C10.1303 45.4727 10.0478 45.3293 10.0096 45.2363L21.1129 40.6845ZM21.1587 40.7951C21.1433 40.7582 21.128 40.7214 21.1129 40.6845L10.0097 45.2363C10.037 45.303 10.0646 45.3696 10.0924 45.4359L21.1587 40.7951ZM19.0737 52.3809C22.4505 49.0041 22.6083 44.2515 21.1587 40.795L10.0924 45.4359C10.0531 45.3421 10.0098 45.1812 10.0449 44.9336C10.0835 44.6612 10.2293 44.2548 10.5884 43.8956L19.0737 52.3809ZM18.0496 53.405L19.0737 52.3809L10.5884 43.8956L9.56437 44.9197L18.0496 53.405ZM18.0496 50.5765C18.8307 51.3576 18.8307 52.6239 18.0496 53.405L9.56437 44.9197C5.65912 48.8249 5.65912 55.1566 9.56437 59.0618L18.0496 50.5765ZM19.4235 51.9503L18.0497 50.5765L9.56436 59.0618L10.9382 60.4356L19.4235 51.9503ZM16.595 51.9503C17.3761 51.1693 18.6424 51.1693 19.4234 51.9503L10.9382 60.4356C14.8434 64.3409 21.1751 64.3409 25.0803 60.4356L16.595 51.9503ZM17.6191 50.9263L16.595 51.9503L25.0803 60.4356L26.1044 59.4116L17.6191 50.9263ZM29.205 48.8413C25.7485 47.3917 20.9959 47.5495 17.6191 50.9263L26.1044 59.4116C25.7452 59.7707 25.3388 59.9165 25.0663 59.9551C24.8188 59.9902 24.6579 59.9469 24.5641 59.9076L29.205 48.8413ZM29.3156 48.8872C29.2785 48.872 29.2416 48.8567 29.205 48.8413L24.564 59.9075C24.6306 59.9354 24.6971 59.963 24.7636 59.9903L29.3156 48.8872ZM36.0286 58.5532C36.0286 53.7782 32.7804 50.3075 29.3155 48.8871L24.7637 59.9903C24.6707 59.9522 24.5273 59.8697 24.3776 59.6706C24.2129 59.4513 24.0286 59.0612 24.0286 58.5532H36.0286ZM36.0286 60V58.5532H24.0286V60H36.0286ZM34.0286 58C35.1331 58 36.0286 58.8954 36.0286 60H24.0286C24.0286 65.5228 28.5057 70 34.0286 70V58ZM35.9714 58H34.0286V70H35.9714V58ZM33.9714 60C33.9714 58.8954 34.8669 58 35.9714 58V70C41.4943 70 45.9714 65.5228 45.9714 60H33.9714ZM33.9714 58.5532V60H45.9714V58.5532H33.9714ZM40.6846 48.8871C37.2196 50.3075 33.9714 53.7782 33.9714 58.5532H45.9714C45.9714 59.0612 45.7871 59.4513 45.6224 59.6706C45.4727 59.8697 45.3293 59.9522 45.2363 59.9903L40.6846 48.8871ZM40.7947 48.8414C40.7582 48.8567 40.7215 48.872 40.6846 48.8871L45.2362 59.9904C45.3029 59.963 45.3696 59.9354 45.4363 59.9074L40.7947 48.8414ZM52.381 50.9263C49.0042 47.5495 44.2516 47.3917 40.7951 48.8413L45.436 59.9075C45.3421 59.9469 45.1812 59.9902 44.9337 59.9551C44.6612 59.9165 44.2548 59.7707 43.8957 59.4116L52.381 50.9263ZM53.405 51.9504L52.381 50.9263L43.8957 59.4116L44.9197 60.4356L53.405 51.9504ZM50.5766 51.9504C51.3576 51.1693 52.624 51.1693 53.405 51.9504L44.9197 60.4356C48.825 64.3409 55.1566 64.3409 59.0619 60.4356L50.5766 51.9504ZM51.9504 50.5765L50.5766 51.9503L59.0619 60.4356L60.4357 59.0618L51.9504 50.5765ZM51.9504 53.405C51.1693 52.6239 51.1694 51.3576 51.9504 50.5765L60.4357 59.0618C64.3409 55.1566 64.3409 48.8249 60.4357 44.9197L51.9504 53.405ZM50.9263 52.3809L51.9504 53.405L60.4357 44.9197L59.4116 43.8956L50.9263 52.3809ZM48.8413 40.795C47.3917 44.2515 47.5495 49.0041 50.9263 52.3809L59.4116 43.8956C59.7707 44.2547 59.9165 44.6612 59.9552 44.9336C59.9902 45.1812 59.9469 45.342 59.9076 45.4359L48.8413 40.795ZM48.887 40.6848C48.872 40.7213 48.8568 40.7582 48.8412 40.7953L59.9077 45.4356C59.9354 45.3696 59.963 45.303 59.9905 45.236L48.887 40.6848ZM58.5532 33.9714C53.7782 33.9714 50.3075 37.2196 48.8871 40.6845L59.9903 45.2363C59.9522 45.3293 59.8697 45.4727 59.6706 45.6224C59.4513 45.7871 59.0612 45.9714 58.5532 45.9714V33.9714ZM60 33.9714H58.5532V45.9714H60V33.9714ZM58 35.9714C58 34.8669 58.8954 33.9714 60 33.9714V45.9714C65.5228 45.9714 70 41.4943 70 35.9714H58ZM58 34.0286V35.9714H70V34.0286H58ZM60 36.0286C58.8954 36.0286 58 35.1331 58 34.0286H70C70 28.5057 65.5228 24.0286 60 24.0286V36.0286ZM58.5532 36.0286H60V24.0286H58.5532V36.0286ZM48.8871 29.3155C50.3075 32.7804 53.7782 36.0286 58.5532 36.0286V24.0286C59.0612 24.0286 59.4513 24.2129 59.6706 24.3776C59.8697 24.5273 59.9522 24.6707 59.9903 24.7637L48.8871 29.3155ZM48.8413 29.205C48.8567 29.2416 48.872 29.2785 48.8872 29.3156L59.9903 24.7636C59.963 24.6971 59.9354 24.6306 59.9075 24.564L48.8413 29.205ZM50.9263 17.6191C47.5495 20.9959 47.3917 25.7484 48.8413 29.205L59.9076 24.5641C59.9469 24.6579 59.9902 24.8188 59.9551 25.0663C59.9165 25.3388 59.7707 25.7452 59.4116 26.1044L50.9263 17.6191ZM51.9504 16.595L50.9263 17.6191L59.4116 26.1043L60.4357 25.0803L51.9504 16.595ZM51.9504 19.4234C51.1693 18.6424 51.1693 17.3761 51.9504 16.595L60.4356 25.0803C64.3409 21.175 64.3409 14.8434 60.4356 10.9382L51.9504 19.4234ZM50.5766 18.0496L51.9504 19.4234L60.4356 10.9382L59.0618 9.56434L50.5766 18.0496ZM53.405 18.0496C52.6239 18.8307 51.3576 18.8307 50.5766 18.0496L59.0618 9.56434C55.1566 5.6591 48.8249 5.6591 44.9197 9.56435L53.405 18.0496ZM52.3809 19.0737L53.405 18.0496L44.9197 9.56435L43.8956 10.5884L52.3809 19.0737ZM40.795 21.1587C44.2515 22.6083 49.0041 22.4505 52.3809 19.0737L43.8956 10.5884C44.2548 10.2293 44.6612 10.0835 44.9336 10.0449C45.1812 10.0098 45.3421 10.0531 45.4359 10.0924L40.795 21.1587ZM40.6844 21.1129C40.7214 21.128 40.7583 21.1433 40.7951 21.1587L45.4359 10.0924C45.3695 10.0646 45.303 10.037 45.2364 10.0097L40.6844 21.1129ZM33.9714 11.4468C33.9714 16.2218 37.2196 19.6925 40.6845 21.1129L45.2363 10.0096C45.3293 10.0478 45.4727 10.1303 45.6224 10.3294C45.7871 10.5487 45.9714 10.9388 45.9714 11.4468H33.9714ZM33.9714 10V11.4468H45.9714V10H33.9714ZM35.9714 12C34.8669 12 33.9714 11.1046 33.9714 10H45.9714C45.9714 4.47715 41.4943 0 35.9714 0V12ZM34.0286 12H35.9714V0H34.0286V12ZM42 35C42 38.866 38.866 42 35 42V54C45.4934 54 54 45.4934 54 35H42ZM35 28C38.866 28 42 31.134 42 35H54C54 24.5066 45.4934 16 35 16V28ZM28 35C28 31.134 31.134 28 35 28V16C24.5066 16 16 24.5066 16 35H28ZM35 42C31.134 42 28 38.866 28 35H16C16 45.4934 24.5066 54 35 54V42Z" fill="#DDE6EE" mask="url(#path-1-outside-1_1_111)"/>
</svg>
